<svg xmlns="http://www.w3.org/2000/svg" viewBox="0 0 32 32">
  <defs>
    <linearGradient id="bg" x1="0" y1="0" x2="1" y2="1">
      <stop offset="0" stop-color="#f72585"/>
      <stop offset=".35" stop-color="#b5179e"/>
      <stop offset=".65" stop-color="#7209b7"/>
      <stop offset="1" stop-color="#4cc9f0"/>
    </linearGradient>
    <linearGradient id="gem" x1="0" y1="0" x2="1" y2="1">
      <stop offset="0" stop-color="#b5179e"/>
      <stop offset="1" stop-color="#4cc9f0"/>
    </linearGradient>
  </defs>
  <rect width="32" height="32" rx="7" fill="url(#bg)"/>
  <!-- handle: wide and flat -->
  <path d="M11 12 V10.4 C11 9 12 8.2 13.4 8.2 H18.6 C20 8.2 21 9 21 10.4 V12" fill="none" stroke="#fff" stroke-width="2.2" stroke-linecap="round"/>
  <!-- body -->
  <rect x="5" y="12" width="22" height="14" rx="2.5" fill="#fff"/>
  <!-- lid band -->
  <path d="M7.5 12 H24.5 A2.5 2.5 0 0 1 27 14.5 V15.4 H5 V14.5 A2.5 2.5 0 0 1 7.5 12 Z" fill="#dcc8f2"/>
  <!-- ETH gem on the front -->
  <polygon points="16,16.4 12.2,21 16,23 19.8,21" fill="url(#gem)"/>
  <polygon points="16,16.4 12.2,21 16,23" fill="#7209b7" opacity=".45"/>
  <polygon points="12.2,22.1 16,24.1 19.8,22.1 16,25.2" fill="url(#gem)"/>
  <polygon points="12.2,22.1 16,24.1 16,25.2" fill="#7209b7" opacity=".45"/>
</svg>
